#!OML:ASF F:\VICON\USERDATA\INSTALL\Justin_Nancy\Justin_Nancy.ASF
:FULLY-SPECIFIED
:DEGREES
308
root 0.739 23.3425 -0.447113 3.0403 -1.37612 0.904293
lowerback 9.09834 1.44566 1.75393
upperback -1.11206 2.27536 2.41849
thorax -6.30839 1.10103 1.21862
lowerneck -15.1434 -3.67709 -8.76533
upperneck 24.4782 -4.15719 4.87828
head 10.6622 -2.13813 2.66144
rclavicle 3.39922e-014 1.51076e-014
rhumerus 26.4591 23.45 -59.104
rradius 48.0785
rwrist 6.97913
rhand -13.6086 15.8554
rfingers 7.12502
rthumb 12.5065 -13.7503
lclavicle 3.39922e-014 1.51076e-014
lhumerus 11.4072 -9.41982 63.2922
lradius 68.1004
lwrist 5.4017
lhand -26.1518 18.5025
lfingers 7.12502
lthumb 0.399159 48.4818
rfemur -10.3026 -10.1479 19.3815
rtibia 80.9325
rfoot 26.5989 -3.70473
rtoes 24.3921
lfemur -11.1454 -0.069604 -19.2045
ltibia 71.9312
lfoot 31.0103 -16.3784
ltoes 1.48738
309
root 0.718265 23.537 -0.180452 2.63682 -0.949445 0.769128
lowerback 9.86691 1.36711 1.65151
upperback -0.981364 2.19512 2.64493
thorax -6.62013 1.0673 1.50975
lowerneck -15.353 -3.70117 -8.77524
upperneck 25.1663 -4.08068 4.48795
head 10.9462 -2.15458 2.53854
rclavicle 8.74653e-015 -2.38542e-015
rhumerus 23.7857 25.111 -61.1151
rradius 45.5094
rwrist 7.44298
rhand -13.6306 16.1344
rfingers 7.12502
rthumb 12.4853 -13.4727
lclavicle 8.74653e-015 -2.38542e-015
lhumerus 9.39989 -11.1062 65.4628
lradius 65.6444
lwrist 3.6015
lhand -24.8109 18.2385
lfingers 7.12502
lthumb 1.69423 48.2115
rfemur -12.3034 -11.6478 19.7012
rtibia 82.741
rfoot 26.099 -3.84856
rtoes 24.3625
lfemur -13.2096 0.111449 -18.7591
ltibia 74.0714
lfoot 29.4983 -16.3477
ltoes 1.71288
310
root 0.696088 23.7026 0.0735069 2.17489 -0.683166 0.461059
lowerback 10.5715 1.28351 1.84019
upperback -0.624171 2.12878 2.79909
thorax -6.63997 1.03003 1.56419
lowerneck -15.3787 -3.71261 -8.93302
upperneck 25.1987 -4.0451 4.46933
head 10.9651 -2.15526 2.5636
rclavicle 1.37161e-014 1.74931e-014
rhumerus 20.7031 25.6737 -64.0169
rradius 43.3044
rwrist 8.75244
rhand -13.3812 16.5688
rfingers 7.12502
rthumb 12.7257 -13.0234
lclavicle 1.37161e-014 1.74931e-014
lhumerus 7.8886 -12.313 67.4578
lradius 62.8943
lwrist 1.75145
lhand -23.5037 17.785
lfingers 7.12502
lthumb 2.95669 47.7443
rfemur -14.3915 -12.8998 20.3011
rtibia 84.3398
rfoot 25.4378 -3.59374
rtoes 22.2621
lfemur -15.1657 0.498705 -18.0935
ltibia 75.8166
lfoot 27.999 -16.5069
ltoes 1.02038
311
root 0.682828 23.8473 0.324348 1.68838 -0.589917 0.212245
lowerback 11.2097 1.269 2.13516
upperback -0.0481018 2.15013 2.82105
thorax -6.38028 1.03193 1.40829
lowerneck -15.7794 -3.84198 -8.98824
upperneck 25.0142 -4.24753 4.75339
head 10.9978 -2.21066 2.6413
rclavicle 1.69961e-014 -1.35174e-014
rhumerus 18.217 25.4074 -67.0542
rradius 40.4966
rwrist 9.82428
rhand -12.9361 16.0829
rfingers 7.12502
rthumb 13.1548 -13.4821
lclavicle 1.69961e-014 -1.35174e-014
lhumerus 6.6807 -13.4127 69.1333
lradius 60.2787
lwrist 0.418502
lhand -22.2109 16.8555
lfingers 7.12502
lthumb 4.20516 46.7938
rfemur -16.5209 -13.8484 20.819
rtibia 85.5786
rfoot 24.8644 -2.92246
rtoes 20.0351
lfemur -17.0004 1.04142 -17.579
ltibia 77.1116
lfoot 26.5179 -16.5911
ltoes 0.429252
312
root 0.697809 23.9988 0.56949 1.61803 -0.196576 1.27399
lowerback 11.6726 1.24091 1.53092
upperback 0.376691 2.0024 2.33857
thorax -6.19047 0.97117 1.25851
lowerneck -16.3708 -4.00562 -8.60248
upperneck 24.7197 -4.55361 4.86103
head 11.0186 -2.28872 2.5608
rclavicle -5.96354e-015 1.66979e-014
rhumerus 16.3984 25.0487 -69.5851
rradius 36.9924
rwrist 9.52624
rhand -12.5905 15.8224
rfingers 7.12502
rthumb 13.4879 -13.7209
lclavicle -5.96354e-015 1.66979e-014
lhumerus 5.41551 -14.3405 70.8004
lradius 57.8793
lwrist -0.595739
lhand -21.6065 15.1127
lfingers 7.12502
lthumb 4.78874 45.0385
rfemur -19.0245 -15.1671 19.6265
rtibia 86.676
rfoot 24.6011 -1.60777
rtoes 19.4858
lfemur -19.0711 1.02338 -18.9154
ltibia 77.8828
lfoot 25.1378 -16.2845
ltoes -1.2471
313
root 0.671671 24.1736 0.846581 1.14575 -0.362503 1.03809
lowerback 12.5926 1.35445 1.66911
upperback 0.87617 2.17892 2.26706
thorax -6.17091 1.05178 1.05989
lowerneck -16.6312 -4.08717 -8.11034
upperneck 24.0526 -4.78428 4.9366
head 10.8254 -2.32995 2.46085
rclavicle -1.94809e-014 -4.77083e-015
rhumerus 14.2146 24.0654 -72.3592
rradius 33.8661
rwrist 9.15638
rhand -12.4096 16.2966
rfingers 7.12502
rthumb 13.6623 -13.2349
lclavicle -1.94809e-014 -4.77083e-015
lhumerus 3.95463 -14.8326 72.4351
lradius 55.6136
lwrist -1.22081
lhand -23.2143 17.6174
lfingers 7.12502
lthumb 3.2361 47.5726
rfemur -20.8235 -15.4643 20.3293
rtibia 86.9309
rfoot 24.6682 -0.927176
rtoes 19.077
lfemur -20.3865 1.90449 -18.3338
ltibia 78.0445
lfoot 24.265 -16.736
ltoes -2.35678
314
root 0.670404 24.1844 1.06258 0.696831 -0.309045 1.3924
lowerback 13.7688 1.37309 1.33103
upperback 1.14689 2.16601 2.07348
thorax -6.54391 1.04861 1.02527
lowerneck -16.7038 -4.12272 -7.9913
upperneck 23.6926 -4.93737 5.26445
head 10.7224 -2.34661 2.53273
rclavicle 4.77083e-015 -8.74653e-015
rhumerus 11.3131 21.9841 -75.6105
rradius 31.2682
rwrist 9.68824
rhand -12.5 16.3086
rfingers 7.12502
rthumb 13.5751 -13.2289
lclavicle 4.77083e-015 -8.74653e-015
lhumerus 2.19024 -14.7898 74.249
lradius 53.0547
lwrist -1.81917
lhand -23.4894 18.1034
lfingers 7.12502
lthumb 2.97044 48.0625
rfemur -23.4354 -15.9957 20.2657
rtibia 87.7666
rfoot 25.0916 -0.203527
rtoes 18.5087
lfemur -22.4437 2.19196 -18.7077
ltibia 78.5855
lfoot 23.7034 -16.8793
ltoes -2.74165
315
root 0.656584 24.2983 1.32802 0.212272 -0.461564 1.60404
lowerback 15.0725 1.47842 0.999871
upperback 1.39366 2.27316 2.0297
thorax -7.01748 1.10549 1.11787
lowerneck -17.0006 -4.21041 -8.04907
upperneck 23.6471 -5.10641 5.59064
head 10.7866 -2.3847 2.63206
rclavicle 3.04141e-014 5.56597e-015
rhumerus 8.32528 18.619 -78.6711
rradius 29.0754
rwrist 10.7659
rhand -13.0492 15.779
rfingers 7.12502
rthumb 13.0458 -13.793
lclavicle 3.04141e-014 5.56597e-015
lhumerus 0.452403 -14.1125 76.1817
lradius 50.3049
lwrist -2.22868
lhand -23.777 17.6679
lfingers 7.12502
lthumb 2.69274 47.6306
rfemur -25.289 -16.1469 20.4163
rtibia 87.51
rfoot 25.422 0.580253
rtoes 16.6849
lfemur -23.6488 2.85063 -18.8093
ltibia 78.1415
lfoot 22.7456 -17.2217
ltoes -2.51095
316
root 0.64327 24.382 1.58247 -0.154173 -0.654991 1.75331
lowerback 16.2845 1.61558 0.726858
upperback 1.65614 2.42507 2.04496
thorax -7.42119 1.18372 1.23032
lowerneck -17.1305 -4.38589 -8.14603
upperneck 23.2131 -5.32331 5.6911
head 10.6755 -2.47659 2.64539
rclavicle 2.78299e-015 1.43125e-014
rhumerus 5.64033 14.3781 -81.1852
rradius 27.2604
rwrist 11.9931
rhand -14.0553 15.2171
rfingers 7.12502
rthumb 12.0758 -14.4145
lclavicle 2.78299e-015 1.43125e-014
lhumerus -0.953134 -13.0115 78.0594
lradius 47.4218
lwrist -1.61366
lhand -23.3814 17.23
lfingers 7.12502
lthumb 3.07476 47.1876
rfemur -27.3178 -15.983 20.7161
rtibia 87.0904
rfoot 24.9523 1.71089
rtoes 14.7548
lfemur -24.9042 3.45055 -18.9183
ltibia 77.4452
lfoot 21.7719 -16.9006
ltoes -1.80836
317
root 0.636954 24.4324 1.83921 -0.326721 -0.338299 2.17888
lowerback 17.3045 1.58825 0.326962
upperback 1.72359 2.32693 2.00902
thorax -7.92398 1.14549 1.4188
lowerneck -16.8375 -4.5493 -8.4155
upperneck 22.7116 -5.4951 5.75412
head 10.4611 -2.57476 2.68543
rclavicle 4.39314e-014 4.77083e-015
rhumerus 2.83137 9.07324 -83.3394
rradius 25.7618
rwrist 13.5725
rhand -14.6833 15.1339
rfingers 7.12502
rthumb 11.4702 -14.5323
lclavicle 4.39314e-014 4.77083e-015
lhumerus -2.45686 -10.9571 79.9299
lradius 44.3193
lwrist -2.35668
lhand -22.5624 18.8688
lfingers 7.12502
lthumb 3.8657 48.8134
rfemur -29.293 -16.1863 20.6155
rtibia 86.2928
rfoot 24.3097 2.71921
rtoes 13.6737
lfemur -26.2128 3.38442 -19.4619
ltibia 76.279
lfoot 21.5046 -15.9859
ltoes -2.13034
